<mxfile host="app.diagrams.net" modified="2023-05-28T14:02:40.161Z" agent="Mozilla/5.0 (Windows NT 10.0; Win64; x64) AppleWebKit/537.36 (KHTML, like Gecko) Chrome/110.0.0.0 YaBrowser/23.3.3.719 Yowser/2.5 Safari/537.36" etag="t-lOdFEkhIBlUmPHxyyy" version="21.3.3" type="device">
  <diagram name="Страница 1" id="_8Xyn77dfXfNIrUzgHad">
    <mxGraphModel dx="1259" dy="696" grid="1" gridSize="10" guides="1" tooltips="1" connect="1" arrows="1" fold="1" page="1" pageScale="1" pageWidth="827" pageHeight="1169" math="0" shadow="0">
      <root>
        <mxCell id="0" />
        <mxCell id="1" parent="0" />
        <mxCell id="HynPFgPw-gL_0oEtD04N-1" value="Выбор мероприятия" style="html=1;verticalAlign=bottom;endArrow=block;edgeStyle=elbowEdgeStyle;elbow=vertical;curved=0;rounded=0;" edge="1" parent="1" target="HynPFgPw-gL_0oEtD04N-3">
          <mxGeometry width="80" relative="1" as="geometry">
            <mxPoint x="100" y="120" as="sourcePoint" />
            <mxPoint x="182" y="120" as="targetPoint" />
            <Array as="points">
              <mxPoint x="90" y="120" />
            </Array>
          </mxGeometry>
        </mxCell>
        <mxCell id="HynPFgPw-gL_0oEtD04N-2" value="ScannerActivity&amp;nbsp;" style="shape=umlLifeline;perimeter=lifelinePerimeter;whiteSpace=wrap;html=1;container=1;dropTarget=0;collapsible=0;recursiveResize=0;outlineConnect=0;portConstraint=eastwest;newEdgeStyle={&quot;edgeStyle&quot;:&quot;elbowEdgeStyle&quot;,&quot;elbow&quot;:&quot;vertical&quot;,&quot;curved&quot;:0,&quot;rounded&quot;:0};" vertex="1" parent="1">
          <mxGeometry x="205" width="100" height="360" as="geometry" />
        </mxCell>
        <mxCell id="HynPFgPw-gL_0oEtD04N-3" value="" style="html=1;points=[];perimeter=orthogonalPerimeter;outlineConnect=0;targetShapes=umlLifeline;portConstraint=eastwest;newEdgeStyle={&quot;edgeStyle&quot;:&quot;elbowEdgeStyle&quot;,&quot;elbow&quot;:&quot;vertical&quot;,&quot;curved&quot;:0,&quot;rounded&quot;:0};" vertex="1" parent="HynPFgPw-gL_0oEtD04N-2">
          <mxGeometry x="45" y="100" width="10" height="90" as="geometry" />
        </mxCell>
        <mxCell id="HynPFgPw-gL_0oEtD04N-4" value="startScanning()" style="html=1;align=left;spacingLeft=2;endArrow=block;rounded=0;edgeStyle=orthogonalEdgeStyle;curved=0;rounded=0;" edge="1" parent="HynPFgPw-gL_0oEtD04N-2" source="HynPFgPw-gL_0oEtD04N-3">
          <mxGeometry relative="1" as="geometry">
            <mxPoint x="60" y="114.5" as="sourcePoint" />
            <Array as="points">
              <mxPoint x="75" y="125" />
              <mxPoint x="75" y="145" />
            </Array>
            <mxPoint x="65" y="144.5" as="targetPoint" />
          </mxGeometry>
        </mxCell>
        <mxCell id="HynPFgPw-gL_0oEtD04N-5" value="" style="html=1;points=[];perimeter=orthogonalPerimeter;outlineConnect=0;targetShapes=umlLifeline;portConstraint=eastwest;newEdgeStyle={&quot;edgeStyle&quot;:&quot;elbowEdgeStyle&quot;,&quot;elbow&quot;:&quot;vertical&quot;,&quot;curved&quot;:0,&quot;rounded&quot;:0};" vertex="1" parent="HynPFgPw-gL_0oEtD04N-2">
          <mxGeometry x="55" y="135.5" width="10" height="40" as="geometry" />
        </mxCell>
        <mxCell id="HynPFgPw-gL_0oEtD04N-6" value="" style="shape=umlLifeline;perimeter=lifelinePerimeter;whiteSpace=wrap;html=1;container=1;dropTarget=0;collapsible=0;recursiveResize=0;outlineConnect=0;portConstraint=eastwest;newEdgeStyle={&quot;edgeStyle&quot;:&quot;elbowEdgeStyle&quot;,&quot;elbow&quot;:&quot;vertical&quot;,&quot;curved&quot;:0,&quot;rounded&quot;:0};participant=umlActor;" vertex="1" parent="1">
          <mxGeometry x="82" width="20" height="360" as="geometry" />
        </mxCell>
        <mxCell id="HynPFgPw-gL_0oEtD04N-7" value="" style="html=1;points=[];perimeter=orthogonalPerimeter;outlineConnect=0;targetShapes=umlLifeline;portConstraint=eastwest;newEdgeStyle={&quot;edgeStyle&quot;:&quot;elbowEdgeStyle&quot;,&quot;elbow&quot;:&quot;vertical&quot;,&quot;curved&quot;:0,&quot;rounded&quot;:0};" vertex="1" parent="HynPFgPw-gL_0oEtD04N-6">
          <mxGeometry x="5" y="86" width="10" height="64" as="geometry" />
        </mxCell>
        <mxCell id="HynPFgPw-gL_0oEtD04N-8" value="" style="html=1;points=[];perimeter=orthogonalPerimeter;outlineConnect=0;targetShapes=umlLifeline;portConstraint=eastwest;newEdgeStyle={&quot;edgeStyle&quot;:&quot;elbowEdgeStyle&quot;,&quot;elbow&quot;:&quot;vertical&quot;,&quot;curved&quot;:0,&quot;rounded&quot;:0};" vertex="1" parent="HynPFgPw-gL_0oEtD04N-6">
          <mxGeometry x="5" y="173" width="10" height="50" as="geometry" />
        </mxCell>
        <mxCell id="HynPFgPw-gL_0oEtD04N-9" value="ResultScannerActivity&amp;nbsp;" style="shape=umlLifeline;perimeter=lifelinePerimeter;whiteSpace=wrap;html=1;container=1;dropTarget=0;collapsible=0;recursiveResize=0;outlineConnect=0;portConstraint=eastwest;newEdgeStyle={&quot;edgeStyle&quot;:&quot;elbowEdgeStyle&quot;,&quot;elbow&quot;:&quot;vertical&quot;,&quot;curved&quot;:0,&quot;rounded&quot;:0};" vertex="1" parent="1">
          <mxGeometry x="360" width="120" height="360" as="geometry" />
        </mxCell>
        <mxCell id="HynPFgPw-gL_0oEtD04N-10" value="ServerHelper" style="shape=umlLifeline;perimeter=lifelinePerimeter;whiteSpace=wrap;html=1;container=1;dropTarget=0;collapsible=0;recursiveResize=0;outlineConnect=0;portConstraint=eastwest;newEdgeStyle={&quot;edgeStyle&quot;:&quot;elbowEdgeStyle&quot;,&quot;elbow&quot;:&quot;vertical&quot;,&quot;curved&quot;:0,&quot;rounded&quot;:0};" vertex="1" parent="1">
          <mxGeometry x="500" width="110" height="360" as="geometry" />
        </mxCell>
        <mxCell id="HynPFgPw-gL_0oEtD04N-11" value="MyEvent" style="shape=umlLifeline;perimeter=lifelinePerimeter;whiteSpace=wrap;html=1;container=1;dropTarget=0;collapsible=0;recursiveResize=0;outlineConnect=0;portConstraint=eastwest;newEdgeStyle={&quot;edgeStyle&quot;:&quot;elbowEdgeStyle&quot;,&quot;elbow&quot;:&quot;vertical&quot;,&quot;curved&quot;:0,&quot;rounded&quot;:0};" vertex="1" parent="1">
          <mxGeometry x="640" width="110" height="360" as="geometry" />
        </mxCell>
        <mxCell id="HynPFgPw-gL_0oEtD04N-12" value="Отображение сканера" style="html=1;verticalAlign=bottom;endArrow=open;dashed=1;endSize=8;edgeStyle=elbowEdgeStyle;elbow=vertical;curved=0;rounded=0;" edge="1" parent="1" source="HynPFgPw-gL_0oEtD04N-3" target="HynPFgPw-gL_0oEtD04N-8">
          <mxGeometry relative="1" as="geometry">
            <mxPoint x="230" y="179.58" as="sourcePoint" />
            <mxPoint x="150" y="179.58" as="targetPoint" />
          </mxGeometry>
        </mxCell>
        <mxCell id="HynPFgPw-gL_0oEtD04N-13" value="Сканирование QR-кода" style="html=1;verticalAlign=bottom;endArrow=block;edgeStyle=elbowEdgeStyle;elbow=vertical;curved=0;rounded=0;" edge="1" parent="1" source="HynPFgPw-gL_0oEtD04N-15">
          <mxGeometry x="1" y="87" width="80" relative="1" as="geometry">
            <mxPoint x="107" y="218" as="sourcePoint" />
            <mxPoint x="257" y="218" as="targetPoint" />
            <Array as="points" />
            <mxPoint as="offset" />
          </mxGeometry>
        </mxCell>
        <mxCell id="HynPFgPw-gL_0oEtD04N-14" value="" style="html=1;verticalAlign=bottom;endArrow=block;edgeStyle=elbowEdgeStyle;elbow=vertical;curved=0;rounded=0;" edge="1" parent="1" target="HynPFgPw-gL_0oEtD04N-15">
          <mxGeometry width="80" relative="1" as="geometry">
            <mxPoint x="107" y="218" as="sourcePoint" />
            <mxPoint x="257" y="218" as="targetPoint" />
            <Array as="points">
              <mxPoint x="97" y="218" />
            </Array>
          </mxGeometry>
        </mxCell>
        <mxCell id="HynPFgPw-gL_0oEtD04N-15" value="" style="html=1;points=[];perimeter=orthogonalPerimeter;outlineConnect=0;targetShapes=umlLifeline;portConstraint=eastwest;newEdgeStyle={&quot;edgeStyle&quot;:&quot;elbowEdgeStyle&quot;,&quot;elbow&quot;:&quot;vertical&quot;,&quot;curved&quot;:0,&quot;rounded&quot;:0};" vertex="1" parent="1">
          <mxGeometry x="250" y="208.5" width="10" height="31.5" as="geometry" />
        </mxCell>
        <mxCell id="HynPFgPw-gL_0oEtD04N-16" value="checkUser()" style="html=1;verticalAlign=bottom;endArrow=block;edgeStyle=elbowEdgeStyle;elbow=vertical;curved=0;rounded=0;" edge="1" parent="1" target="HynPFgPw-gL_0oEtD04N-10">
          <mxGeometry width="80" relative="1" as="geometry">
            <mxPoint x="260" y="230" as="sourcePoint" />
            <mxPoint x="340" y="230" as="targetPoint" />
          </mxGeometry>
        </mxCell>
        <mxCell id="HynPFgPw-gL_0oEtD04N-17" value="Event()" style="html=1;verticalAlign=bottom;endArrow=block;edgeStyle=elbowEdgeStyle;elbow=vertical;curved=0;rounded=0;" edge="1" parent="1">
          <mxGeometry width="80" relative="1" as="geometry">
            <mxPoint x="560" y="220" as="sourcePoint" />
            <mxPoint x="690" y="220" as="targetPoint" />
          </mxGeometry>
        </mxCell>
        <mxCell id="HynPFgPw-gL_0oEtD04N-18" value="Event()" style="html=1;verticalAlign=bottom;endArrow=open;dashed=1;endSize=8;edgeStyle=elbowEdgeStyle;elbow=vertical;curved=0;rounded=0;" edge="1" parent="1">
          <mxGeometry relative="1" as="geometry">
            <mxPoint x="690" y="260" as="sourcePoint" />
            <mxPoint x="560" y="260" as="targetPoint" />
          </mxGeometry>
        </mxCell>
      </root>
    </mxGraphModel>
  </diagram>
</mxfile>
